<mxfile host="app.diagrams.net" modified="2023-12-25T13:05:48.680Z" agent="Mozilla/5.0 (X11; Linux x86_64; rv:121.0) Gecko/20100101 Firefox/121.0" version="22.1.11" etag="3b8Rl9utlWCNLu8jKYmO" type="github">
  <diagram name="Page-1" id="hHci7Eus1n0ar48bg8fT">
    <mxGraphModel>
      <root>
        <mxCell id="0" />
        <mxCell id="1" parent="0" />
      </root>
    </mxGraphModel>
  </diagram>
</mxfile>
